HIERARCHY
ROOT root
{
	OFFSET 0.00 0.00 0.00
	CHANNELS 6 Xposition Yposition Zposition Zrotation Xrotation Yrotation
	JOINT lowerback
	{
		OFFSET 0 0 0
		CHANNELS 6 Xposition Yposition Zposition Zrotation Xrotation Yrotation
		JOINT upperback
		{
			OFFSET -0.214371 12.3768 -1.12219
			CHANNELS 6 Xposition Yposition Zposition Zrotation Xrotation Yrotation
			JOINT thorax
			{
				OFFSET -0.00137213 12.3873 0.296195
				CHANNELS 6 Xposition Yposition Zposition Zrotation Xrotation Yrotation
				JOINT lowerneck
				{
					OFFSET 0.0883157 12.5016 0.82912
					CHANNELS 6 Xposition Yposition Zposition Zrotation Xrotation Yrotation
					JOINT upperneck
					{
						OFFSET -1 10.1794 0.943522
						CHANNELS 6 Xposition Yposition Zposition Zrotation Xrotation Yrotation
						JOINT head
						{
							OFFSET 0.667525 10.2797 -1.57149
							CHANNELS 6 Xposition Yposition Zposition Zrotation Xrotation Yrotation
							End Site
							{
								OFFSET 0 0 0
							}
						}
					}
				}
				JOINT lclavicle
				{
					OFFSET 0.0883157 12.5016 0.82912
					CHANNELS 6 Xposition Yposition Zposition Zrotation Xrotation Yrotation
					JOINT lhumerus
					{
						OFFSET 20.61 4.45006 1.43784
						CHANNELS 6 Xposition Yposition Zposition Zrotation Xrotation Yrotation
						JOINT lradius
						{
							OFFSET 0 -30.3438 0
							CHANNELS 6 Xposition Yposition Zposition Zrotation Xrotation Yrotation
							JOINT lwrist
							{
								OFFSET 0 -18.964 0
								CHANNELS 6 Xposition Yposition Zposition Zrotation Xrotation Yrotation
								JOINT lhand
								{
									OFFSET 0 -9.48199 0
									CHANNELS 6 Xposition Yposition Zposition Zrotation Xrotation Yrotation
									JOINT lfingers
									{
										OFFSET 0 -3.17138 0
										CHANNELS 6 Xposition Yposition Zposition Zrotation Xrotation Yrotation
										End Site
										{
											OFFSET 0 -2.55685 0
										}
									}
								}
								JOINT lthumb
								{
									OFFSET 0 -9.48199 0
									CHANNELS 6 Xposition Yposition Zposition Zrotation Xrotation Yrotation
									End Site
									{
										OFFSET 0 -3.67114 0
									}
								}
							}
						}
					}
				}
				JOINT rclavicle
				{
					OFFSET 0.0883157 12.5016 0.82912
					CHANNELS 6 Xposition Yposition Zposition Zrotation Xrotation Yrotation
					JOINT rhumerus
					{
						OFFSET -20.61 4.45 1.44
						CHANNELS 6 Xposition Yposition Zposition Zrotation Xrotation Yrotation
						JOINT rradius
						{
							OFFSET 0 -29.5102 0
							CHANNELS 6 Xposition Yposition Zposition Zrotation Xrotation Yrotation
							JOINT rwrist
							{
								OFFSET 0 -19.2342 0
								CHANNELS 6 Xposition Yposition Zposition Zrotation Xrotation Yrotation
								JOINT rhand
								{
									OFFSET 0 -9.61712 0
									CHANNELS 6 Xposition Yposition Zposition Zrotation Xrotation Yrotation
									JOINT rfingers
									{
										OFFSET 0 -3.29215 0
										CHANNELS 6 Xposition Yposition Zposition Zrotation Xrotation Yrotation
										End Site
										{
											OFFSET 0 -2.557 0
										}
									}
								}
								JOINT rthumb
								{
									OFFSET 0 -9.61712 0
									CHANNELS 6 Xposition Yposition Zposition Zrotation Xrotation Yrotation
									End Site
									{
										OFFSET 0 -3.671 0
									}
								}
							}
						}
					}
				}
			}
		}
	}
	JOINT rfemur
	{
		OFFSET -8.46272 -9.62775 4.76248
		CHANNELS 6 Xposition Yposition Zposition Zrotation Xrotation Yrotation
		JOINT rtibia
		{
			OFFSET 1.00552e-005 -38.0331 0
			CHANNELS 6 Xposition Yposition Zposition Zrotation Xrotation Yrotation
			JOINT rfoot
			{
				OFFSET 1.14428e-005 -43.2815 0
				CHANNELS 6 Xposition Yposition Zposition Zrotation Xrotation Yrotation
				JOINT rtoes
				{
					OFFSET 0 -14.1868 -3.08763
					CHANNELS 6 Xposition Yposition Zposition Zrotation Xrotation Yrotation
					End Site
					{
						OFFSET 0 -7.27332 0
					}
				}
			}
		}
	}
	JOINT lfemur
	{
		OFFSET 9.10607 -9.62778 4.76249
		CHANNELS 6 Xposition Yposition Zposition Zrotation Xrotation Yrotation
		JOINT ltibia
		{
			OFFSET -1.01399e-005 -38.3535 0
			CHANNELS 6 Xposition Yposition Zposition Zrotation Xrotation Yrotation
			JOINT lfoot
			{
				OFFSET -1.12937e-005 -42.7176 0
				CHANNELS 6 Xposition Yposition Zposition Zrotation Xrotation Yrotation
				JOINT ltoes
				{
					OFFSET 0 -13.9965 -2.83857
					CHANNELS 6 Xposition Yposition Zposition Zrotation Xrotation Yrotation
					End Site
					{
						OFFSET 0 -7.16348 0
					}
				}
			}
		}
	}
}
MOTION
Frames: 10
Frame Time: 0.00833333
-6.86881	95.7055	183.863	2.63627	9.1391	10.3212	0 0 0 -1.60982	1.85636	-3.05293	-0.214371 12.3768 -1.12219 1.39165	0.596742	-4.09808	-0.00137213 12.3873 0.296195 2.40282	-0.208162	-2.0554	0.0883157 12.5016 0.82912 -1.45763	-18.0083	-1.373	-1 10.1794 0.943522 6.36193	8.60266	-2.3712	0.667525 10.2797 -1.57149 1.9147	5.61378	-0.73287	0.0883157 12.5016 0.82912 -15	0	-0	20.61 4.45006 1.43784 22.9638	9.28803	143.454	0 -30.3438 0 -0	83.7206	-0	0 -18.964 0 1.37407e-014	-2.00541e-015	-106.607	0 -9.48199 0 1.22245	4.37968	-2.58917e-014	0 -3.17138 0 -0	7.12502	-0	0 -9.48199 0 25	15	-1.36605e-015	0.0883157 12.5016 0.82912 15	0	-0	-20.61 4.45 1.44 -24.7027	14.5706	178.795	0 -29.5102 0 -0	40.7774	-0	0 -19.2342 0 5.22275e-016	-2.65641e-015	112.246	0 -9.61712 0 1.22	4.38	-0	0 -3.29215 0 -0	7.12502	-0	0 -9.61712 0 25	15	-7.97034e-015	-8.46272 -9.62775 4.76248 -1.18799	-33.1999	2.64775	1.00552e-005 -38.0331 0 -0	45.0942	-0	1.14428e-005 -43.2815 0 -60.9572	-75.2922	-61.7594	0 -14.1868 -3.08763 -0	-28.4066	-0	9.10607 -9.62778 4.76249 0.00378082	9.37069	6.28799	-1.01399e-005 -38.3535 0 -0	22.8298	-0	-1.12937e-005 -42.7176 0 -5.38873	-72.9039	-5.63672	0 -13.9965 -2.83857 -0	-44.3362	-0
-6.94065	95.701	184.355	2.5924	9.18276	10.5277	0 0 0 -1.57631	1.86947	-3.04264	-0.214371 12.3768 -1.12219 1.40291	0.556507	-4.08356	-0.00137213 12.3873 0.296195 2.40114	-0.258892	-2.04708	0.0883157 12.5016 0.82912 -1.60554	-17.9998	-1.46408	-1 10.1794 0.943522 6.77514	8.45774	-2.50949	0.667525 10.2797 -1.57149 2.0507	5.58091	-0.778895	0.0883157 12.5016 0.82912 -15	0	-0	20.61 4.45006 1.43784 23.0228	9.58304	143.859	0 -30.3438 0 -0	83.2369	-0	0 -18.964 0 1.37309e-014	-2.03825e-015	-106.887	0 -9.48199 0 1.22245	4.37968	-2.58917e-014	0 -3.17138 0 -0	7.12502	-0	0 -9.48199 0 25	15	-1.36605e-015	0.0883157 12.5016 0.82912 15	0	-0	-20.61 4.45 1.44 -24.4869	14.4684	178.588	0 -29.5102 0 -0	40.808	-0	0 -19.2342 0 5.21441e-016	-2.65437e-015	112.228	0 -9.61712 0 1.22	4.38	-0	0 -3.29215 0 -0	7.12502	-0	0 -9.61712 0 25	15	-7.97034e-015	-8.46272 -9.62775 4.76248 -1.04937	-32.9461	2.68351	1.00552e-005 -38.0331 0 -0	45.2071	-0	1.14428e-005 -43.2815 0 -62.4925	-75.2618	-63.2694	0 -14.1868 -3.08763 -0	-28.7779	-0	9.10607 -9.62778 4.76249 0.155863	8.54327	6.30816	-1.01399e-005 -38.3535 0 -0	23.8072	-0	-1.12937e-005 -42.7176 0 -6.1933	-73.3728	-6.46176	0 -13.9965 -2.83857 -0	-44.8932	-0
-7.01371	95.7006	184.841	2.53811	9.21534	10.7736	0 0 0 -1.53893	1.88658	-3.03476	-0.214371 12.3768 -1.12219 1.41448	0.521478	-4.07222	-0.00137213 12.3873 0.296195 2.39576	-0.30658	-2.04047	0.0883157 12.5016 0.82912 -1.76524	-17.9946	-1.56586	-1 10.1794 0.943522 7.18664	8.3051	-2.65809	0.667525 10.2797 -1.57149 2.18681	5.54755	-0.830942	0.0883157 12.5016 0.82912 -15	0	-0	20.61 4.45006 1.43784 23.099	9.86844	144.24	0 -30.3438 0 -0	82.7686	-0	0 -18.964 0 1.37208e-014	-2.07092e-015	-107.166	0 -9.48199 0 1.22245	4.37968	-2.58917e-014	0 -3.17138 0 -0	7.12502	-0	0 -9.48199 0 25	15	-1.36605e-015	0.0883157 12.5016 0.82912 15	0	-0	-20.61 4.45 1.44 -24.2674	14.3974	178.39	0 -29.5102 0 -0	40.8823	-0	0 -19.2342 0 5.19358e-016	-2.64927e-015	112.183	0 -9.61712 0 1.22	4.38	-0	0 -3.29215 0 -0	7.12502	-0	0 -9.61712 0 25	15	-7.97034e-015	-8.46272 -9.62775 4.76248 -0.907389	-32.6669	2.71383	1.00552e-005 -38.0331 0 -0	45.2943	-0	1.14428e-005 -43.2815 0 -64.0653	-75.2021	-64.8167	0 -14.1868 -3.08763 -0	-29.1242	-0	9.10607 -9.62778 4.76249 0.333642	7.65013	6.32941	-1.01399e-005 -38.3535 0 -0	24.8691	-0	-1.12937e-005 -42.7176 0 -6.93957	-73.7925	-7.22425	0 -13.9965 -2.83857 -0	-45.3874	-0
-7.08851	95.7004	185.32	2.47202	9.23383	11.0577	0 0 0 -1.49577	1.90927	-3.02827	-0.214371 12.3768 -1.12219 1.42689	0.492513	-4.06269	-0.00137213 12.3873 0.296195 2.38799	-0.351399	-2.0349	0.0883157 12.5016 0.82912 -1.93652	-17.9904	-1.67862	-1 10.1794 0.943522 7.59431	8.14449	-2.81707	0.667525 10.2797 -1.57149 2.32236	5.51331	-0.889203	0.0883157 12.5016 0.82912 -15	0	-0	20.61 4.45006 1.43784 23.195	10.1438	144.594	0 -30.3438 0 -0	82.3214	-0	0 -18.964 0 1.3711e-014	-2.10249e-015	-107.436	0 -9.48199 0 1.22245	4.37968	-2.58917e-014	0 -3.17138 0 -0	7.12502	-0	0 -9.48199 0 25	15	-1.36605e-015	0.0883157 12.5016 0.82912 15	0	-0	-20.61 4.45 1.44 -24.0478	14.3583	178.214	0 -29.5102 0 -0	40.9994	-0	0 -19.2342 0 5.16126e-016	-2.64133e-015	112.113	0 -9.61712 0 1.22	4.38	-0	0 -3.29215 0 -0	7.12502	-0	0 -9.61712 0 25	15	-7.97034e-015	-8.46272 -9.62775 4.76248 -0.760252	-32.3608	2.73518	1.00552e-005 -38.0331 0 -0	45.3572	-0	1.14428e-005 -43.2815 0 -65.6582	-75.1163	-66.3834	0 -14.1868 -3.08763 -0	-29.4434	-0	9.10607 -9.62778 4.76249 0.539645	6.69383	6.35892	-1.01399e-005 -38.3535 0 -0	26.019	-0	-1.12937e-005 -42.7176 0 -7.65417	-74.167	-7.95266	0 -13.9965 -2.83857 -0	-45.8221	-0
-7.16516	95.7003	185.794	2.39362	9.23561	11.377	0 0 0 -1.44551	1.93901	-3.02201	-0.214371 12.3768 -1.12219 1.44039	0.470182	-4.05339	-0.00137213 12.3873 0.296195 2.37739	-0.393744	-2.02959	0.0883157 12.5016 0.82912 -2.11865	-17.985	-1.8021	-1 10.1794 0.943522 7.99611	7.97651	-2.98602	0.667525 10.2797 -1.57149 2.45669	5.47805	-0.953582	0.0883157 12.5016 0.82912 -15	0	-0	20.61 4.45006 1.43784 23.3123	10.4093	144.918	0 -30.3438 0 -0	81.9006	-0	0 -18.964 0 1.37017e-014	-2.13179e-015	-107.687	0 -9.48199 0 1.22245	4.37968	-2.58917e-014	0 -3.17138 0 -0	7.12502	-0	0 -9.48199 0 25	15	-1.36605e-015	0.0883157 12.5016 0.82912 15	0	-0	-20.61 4.45 1.44 -23.8316	14.3501	178.067	0 -29.5102 0 -0	41.1559	-0	0 -19.2342 0 5.11802e-016	-2.63066e-015	112.019	0 -9.61712 0 1.22	4.38	-0	0 -3.29215 0 -0	7.12502	-0	0 -9.61712 0 25	15	-7.97034e-015	-8.46272 -9.62775 4.76248 -0.606764	-32.0276	2.74439	1.00552e-005 -38.0331 0 -0	45.3978	-0	1.14428e-005 -43.2815 0 -67.2505	-75.0084	-67.9487	0 -14.1868 -3.08763 -0	-29.7352	-0	9.10607 -9.62778 4.76249 0.775009	5.67953	6.40408	-1.01399e-005 -38.3535 0 -0	27.2552	-0	-1.12937e-005 -42.7176 0 -8.36729	-74.4988	-8.67885	0 -13.9965 -2.83857 -0	-46.2027	-0
-7.24386	95.7003	186.262	2.30334	9.21869	11.7269	0 0 0 -1.38753	1.97706	-3.01473	-0.214371 12.3768 -1.12219 1.45497	0.454736	-4.04265	-0.00137213 12.3873 0.296195 2.36364	-0.434197	-2.0237	0.0883157 12.5016 0.82912 -2.31046	-17.9766	-1.93556	-1 10.1794 0.943522 8.39019	7.80252	-3.16403	0.667525 10.2797 -1.57149 2.5892	5.44186	-1.02371	0.0883157 12.5016 0.82912 -15	0	-0	20.61 4.45006 1.43784 23.4517	10.6658	145.213	0 -30.3438 0 -0	81.5107	-0	0 -18.964 0 1.36933e-014	-2.15815e-015	-107.913	0 -9.48199 0 1.22245	4.37968	-2.58917e-014	0 -3.17138 0 -0	7.12502	-0	0 -9.48199 0 25	15	-1.36605e-015	0.0883157 12.5016 0.82912 15	0	-0	-20.61 4.45 1.44 -23.6223	14.3704	177.958	0 -29.5102 0 -0	41.3465	-0	0 -19.2342 0 5.06626e-016	-2.61783e-015	111.906	0 -9.61712 0 1.22	4.38	-0	0 -3.29215 0 -0	7.12502	-0	0 -9.61712 0 25	15	-7.97034e-015	-8.46272 -9.62775 4.76248 -0.446457	-31.6676	2.73889	1.00552e-005 -38.0331 0 -0	45.4187	-0	1.14428e-005 -43.2815 0 -68.8207	-74.8831	-69.4909	0 -14.1868 -3.08763 -0	-30.0013	-0	9.10607 -9.62778 4.76249 1.03951	4.61438	6.47205	-1.01399e-005 -38.3535 0 -0	28.5714	-0	-1.12937e-005 -42.7176 0 -9.1076	-74.7893	-9.43284	0 -13.9965 -2.83857 -0	-46.5358	-0
-7.32399	95.7004	186.724	2.20248	9.18177	12.1021	0 0 0 -1.32193	2.0244	-3.00516	-0.214371 12.3768 -1.12219 1.47035	0.446103	-4.02878	-0.00137213 12.3873 0.296195 2.34653	-0.473469	-2.01636	0.0883157 12.5016 0.82912 -2.51033	-17.9636	-2.07785	-1 10.1794 0.943522 8.77495	7.62442	-3.34982	0.667525 10.2797 -1.57149 2.71933	5.40502	-1.099	0.0883157 12.5016 0.82912 -15	0	-0	20.61 4.45006 1.43784 23.6129	10.9148	145.48	0 -30.3438 0 -0	81.1554	-0	0 -18.964 0 1.3686e-014	-2.18062e-015	-108.106	0 -9.48199 0 1.22245	4.37968	-2.58917e-014	0 -3.17138 0 -0	7.12502	-0	0 -9.48199 0 25	15	-1.36605e-015	0.0883157 12.5016 0.82912 15	0	-0	-20.61 4.45 1.44 -23.423	14.4157	177.893	0 -29.5102 0 -0	41.5639	-0	0 -19.2342 0 5.00885e-016	-2.60351e-015	111.78	0 -9.61712 0 1.22	4.38	-0	0 -3.29215 0 -0	7.12502	-0	0 -9.61712 0 25	15	-7.97034e-015	-8.46272 -9.62775 4.76248 -0.279579	-31.2823	2.71691	1.00552e-005 -38.0331 0 -0	45.423	-0	1.14428e-005 -43.2815 0 -70.3466	-74.7452	-70.9878	0 -14.1868 -3.08763 -0	-30.2456	-0	9.10607 -9.62778 4.76249 1.3317	3.50685	6.56913	-1.01399e-005 -38.3535 0 -0	29.9577	-0	-1.12937e-005 -42.7176 0 -9.89781	-75.0391	-10.2383	0 -13.9965 -2.83857 -0	-46.8277	-0
-7.40587	95.7005	187.18	2.09305	9.12433	12.496	0 0 0 -1.24939	2.08161	-2.9921	-0.214371 12.3768 -1.12219 1.48609	0.443921	-4.01015	-0.00137213 12.3873 0.296195 2.32599	-0.512315	-2.00674	0.0883157 12.5016 0.82912 -2.71637	-17.9446	-2.22746	-1 10.1794 0.943522 9.14907	7.44443	-3.54181	0.667525 10.2797 -1.57149 2.8466	5.36796	-1.17867	0.0883157 12.5016 0.82912 -15	0	-0	20.61 4.45006 1.43784 23.7946	11.1582	145.723	0 -30.3438 0 -0	80.8368	-0	0 -18.964 0 1.368e-014	-2.19878e-015	-108.262	0 -9.48199 0 1.22245	4.37968	-2.58917e-014	0 -3.17138 0 -0	7.12502	-0	0 -9.48199 0 25	15	-1.36605e-015	0.0883157 12.5016 0.82912 15	0	-0	-20.61 4.45 1.44 -23.2367	14.4813	177.876	0 -29.5102 0 -0	41.8	-0	0 -19.2342 0 4.94769e-016	-2.58815e-015	111.645	0 -9.61712 0 1.22	4.38	-0	0 -3.29215 0 -0	7.12502	-0	0 -9.61712 0 25	15	-7.97034e-015	-8.46272 -9.62775 4.76248 -0.107002	-30.8738	2.67761	1.00552e-005 -38.0331 0 -0	45.4139	-0	1.14428e-005 -43.2815 0 -71.8075	-74.5999	-72.419	0 -14.1868 -3.08763 -0	-30.4743	-0	9.10607 -9.62778 4.76249 1.64907	2.36614	6.70025	-1.01399e-005 -38.3535 0 -0	31.4016	-0	-1.12937e-005 -42.7176 0 -10.7514	-75.2485	-11.1093	0 -13.9965 -2.83857 -0	-47.0837	-0
-7.48708	95.7006	187.63	1.97749	9.04662	12.902	0 0 0 -1.17107	2.14883	-2.97441	-0.214371 12.3768 -1.12219 1.50162	0.447594	-3.98524	-0.00137213 12.3873 0.296195 2.30207	-0.551446	-1.99407	0.0883157 12.5016 0.82912 -2.92643	-17.9188	-2.3827	-1 10.1794 0.943522 9.51152	7.26485	-3.73826	0.667525 10.2797 -1.57149 2.9706	5.33113	-1.26182	0.0883157 12.5016 0.82912 -15	0	-0	20.61 4.45006 1.43784 23.9949	11.3985	145.946	0 -30.3438 0 -0	80.5561	-0	0 -18.964 0 1.36755e-014	-2.21249e-015	-108.38	0 -9.48199 0 1.22245	4.37968	-2.58917e-014	0 -3.17138 0 -0	7.12502	-0	0 -9.48199 0 25	15	-1.36605e-015	0.0883157 12.5016 0.82912 15	0	-0	-20.61 4.45 1.44 -23.0657	14.5622	177.908	0 -29.5102 0 -0	42.0458	-0	0 -19.2342 0 4.88644e-016	-2.57266e-015	111.509	0 -9.61712 0 1.22	4.38	-0	0 -3.29215 0 -0	7.12502	-0	0 -9.61712 0 25	15	-7.97034e-015	-8.46272 -9.62775 4.76248 0.0699085	-30.445	2.62112	1.00552e-005 -38.0331 0 -0	45.395	-0	1.14428e-005 -43.2815 0 -73.184	-74.4523	-73.7656	0 -14.1868 -3.08763 -0	-30.6952	-0	9.10607 -9.62778 4.76249 1.98824	1.20167	6.8685	-1.01399e-005 -38.3535 0 -0	32.8887	-0	-1.12937e-005 -42.7176 0 -11.6709	-75.4176	-12.0486	0 -13.9965 -2.83857 -0	-47.308	-0
-7.56663	95.7006	188.073	1.85848	8.9496	13.3132	0 0 0 -1.08841	2.22569	-2.9511	-0.214371 12.3768 -1.12219 1.51632	0.456368	-3.95274	-0.00137213 12.3873 0.296195 2.27492	-0.591419	-1.97768	0.0883157 12.5016 0.82912 -3.13825	-17.8858	-2.54172	-1 10.1794 0.943522 9.86147	7.08788	-3.9373	0.667525 10.2797 -1.57149 3.09093	5.29503	-1.34747	0.0883157 12.5016 0.82912 -15	0	-0	20.61 4.45006 1.43784 24.2108	11.6378	146.152	0 -30.3438 0 -0	80.3132	-0	0 -18.964 0 1.36724e-014	-2.22179e-015	-108.46	0 -9.48199 0 1.22245	4.37968	-2.58917e-014	0 -3.17138 0 -0	7.12502	-0	0 -9.48199 0 25	15	-1.36605e-015	0.0883157 12.5016 0.82912 15	0	-0	-20.61 4.45 1.44 -22.9118	14.6529	177.989	0 -29.5102 0 -0	42.2928	-0	0 -19.2342 0 4.82645e-016	-2.55738e-015	111.375	0 -9.61712 0 1.22	4.38	-0	0 -3.29215 0 -0	7.12502	-0	0 -9.61712 0 25	15	-7.97034e-015	-8.46272 -9.62775 4.76248 0.249466	-29.9993	2.54851	1.00552e-005 -38.0331 0 -0	45.3701	-0	1.14428e-005 -43.2815 0 -74.4597	-74.3073	-75.0117	0 -14.1868 -3.08763 -0	-30.9172	-0	9.10607 -9.62778 4.76249 2.34514	0.0227399	7.07475	-1.01399e-005 -38.3535 0 -0	34.4028	-0	-1.12937e-005 -42.7176 0 -12.6482	-75.5472	-13.0481	0 -13.9965 -2.83857 -0	-47.5037	-0
